# xmcd CD database file
#
# Track frame offsets:
#	150
#	38432
#	74517
#	107447
#	135687
#	174117
#	202050
#	226140
#
# Disc length: 3396 seconds
#
# Revision: 0
# Processed by: cddbd v1.5.1PL0 Copyright (c) Steve Scherf et al.
# Submitted via: CDex 1.51
#
DISCID=610d4208
DTITLE=Eric Alexander - Two Of A Kind
DYEAR=1996
DGENRE=Jazz
TTITLE0=Happy Song
TTITLE1=Pentimento
TTITLE2=Mr. Harris
TTITLE3=I Can'T Get Started
TTITLE4=Cecil'S Slide
TTITLE5=Angel Eyes
TTITLE6=Beautiful Things
TTITLE7=Kick-A-Poo
EXTD=YEAR: 1996
EXTT0=
EXTT1=
EXTT2=
EXTT3=
EXTT4=
EXTT5=
EXTT6=
EXTT7=
PLAYORDER=
